
<svg width="100" height="28" viewBox="0 0 100 28" fill="currentColor" xmlns="http://www.w3.org/2000/svg">
<path fill-rule="evenodd" clip-rule="evenodd" d="M79.037 8.25535L88.2461 2.93848L97.4552 8.25535V18.8891L88.2461 24.206L79.037 18.8891V8.25535ZM88.2461 0L100 6.78612V20.3584L88.2461 27.1445L76.4922 20.3584V6.78612L88.2461 0ZM83.9569 11.0943L88.2458 8.61816L92.5346 11.0943V16.0467L88.2458 18.5229L83.9569 16.0467V11.0943ZM88.2458 5.67969L95.0794 9.6251V17.5159L88.2458 21.4614L81.4121 17.5159V9.6251L88.2458 5.67969Z" fill="#124CB1"/>
<path d="M6.7357 23.4919L0 3.89708H4.97073L9.90545 18.7733L8.17649 18.7372L13.4354 3.89708H17.6137L22.8366 18.7372L21.1076 18.7733L26.0423 3.89708H31.013L24.2773 23.4919H20.063L14.7321 7.96732H16.317L10.914 23.4919H6.7357Z" fill="currentColor"/>
<path d="M38.8395 23.9241C37.4707 23.9241 36.2821 23.696 35.2735 23.2397C34.265 22.7835 33.4845 22.1351 32.9322 21.2946C32.3799 20.4302 32.1038 19.4336 32.1038 18.305C32.1038 17.2244 32.3439 16.2639 32.8242 15.4234C33.3044 14.5589 34.0488 13.8385 35.0574 13.2622C36.0659 12.6859 37.3386 12.2777 38.8755 12.0376L45.287 10.993V14.595L39.776 15.5315C38.8395 15.6996 38.1431 15.9997 37.6868 16.432C37.2306 16.8642 37.0025 17.4285 37.0025 18.1249C37.0025 18.7973 37.2546 19.3376 37.7589 19.7458C38.2872 20.13 38.9355 20.3221 39.7039 20.3221C40.6885 20.3221 41.553 20.118 42.2974 19.7098C43.0658 19.2775 43.6541 18.6892 44.0623 17.9448C44.4946 17.2004 44.7107 16.3839 44.7107 15.4955V10.4527C44.7107 9.61222 44.3745 8.91584 43.7021 8.36354C43.0538 7.78722 42.1893 7.49906 41.1087 7.49906C40.1002 7.49906 39.1997 7.77521 38.4072 8.32752C37.6388 8.85581 37.0745 9.5642 36.7143 10.4527L32.8602 8.57966C33.2444 7.54709 33.8447 6.6586 34.6612 5.91419C35.5016 5.14577 36.4862 4.54544 37.6148 4.1132C38.7434 3.68096 39.9681 3.46484 41.2888 3.46484C42.8977 3.46484 44.3145 3.76501 45.5392 4.36534C46.7638 4.94166 47.7123 5.75811 48.3847 6.81469C49.0811 7.84725 49.4293 9.05992 49.4293 10.4527V23.4919H44.9628V20.142L45.9714 20.07C45.4671 20.9104 44.8668 21.6188 44.1704 22.1951C43.474 22.7474 42.6816 23.1797 41.7931 23.4919C40.9046 23.78 39.9201 23.9241 38.8395 23.9241Z" fill="currentColor"/>
<path d="M53.7905 23.4919V3.89708H58.2209V7.7512L57.8607 7.06682C58.317 5.89018 59.0614 5.00169 60.094 4.40136C61.1506 3.77702 62.3752 3.46484 63.768 3.46484C65.2088 3.46484 66.4815 3.77702 67.5861 4.40136C68.7147 5.0257 69.5912 5.90219 70.2155 7.03081C70.8399 8.13541 71.152 9.42012 71.152 10.8849V23.4919H66.4335V12.0015C66.4335 11.1371 66.2654 10.3927 65.9292 9.76831C65.593 9.14397 65.1247 8.6637 64.5244 8.32752C63.9481 7.96732 63.2637 7.78722 62.4713 7.78722C61.7029 7.78722 61.0185 7.96732 60.4181 8.32752C59.8178 8.6637 59.3496 9.14397 59.0134 9.76831C58.6772 10.3927 58.5091 11.1371 58.5091 12.0015V23.4919H53.7905Z" fill="currentColor"/>
</svg>